# xmcd
#
# Track frame offsets:
#	150
#	8897
#	28042
#	50361
#	78400
#	100479
#	118228
#	139596
#	164410
#	185622
#	204002
#	220690
#	225797
#	248127
#	266359
#	284669
#	307335
#	330584
#
# Disc length: 4417 seconds
#
# Revision: 0
# Processed by: cddbd v1.5.2PL0 Copyright (c) Steve Scherf et al.
# Submitted via: dBpowerAMP V4.0
#
DISCID=fa113f12
DTITLE=CaGeBe (Cada Gênio do Beco) - Lado Beco
DYEAR=2007
DGENRE=Rap
TTITLE0=Meu Quintal
TTITLE1=Combustível pra Viver
TTITLE2=Lado Beco
TTITLE3=Barracão
TTITLE4=Manhã Seguinte
TTITLE5=Paz
TTITLE6=Só Não Pode Andar Parado
TTITLE7=Prisioneiro
TTITLE8=Missão Comprida
TTITLE9=Erros
TTITLE10=Ninguém Vai te Impedir
TTITLE11=Risco DJ Paulinho
TTITLE12=Bilhar
TTITLE13=Menina
TTITLE14=Relacionamento
TTITLE15=A Gente Briga
TTITLE16=Curta Vida
TTITLE17=Contínua...
EXTD=
EXTT0=
EXTT1=
EXTT2=
EXTT3=
EXTT4=
EXTT5=
EXTT6=
EXTT7=
EXTT8=
EXTT9=
EXTT10=
EXTT11=
EXTT12=
EXTT13=
EXTT14=
EXTT15=
EXTT16=
EXTT17=
PLAYORDER=
